<?xml version="1.0" encoding="UTF-8"?>
<svg xmlns="http://www.w3.org/2000/svg" xmlns:xlink="http://www.w3.org/1999/xlink" xmlns:ev="http://www.w3.org/2001/xml-events" version="1.1" baseProfile="full" width="90px" height="90px" viewBox="0 0 90 90">
<rect x="0" y="20" width="10.1" height="10.1" fill="#000000" />
<rect x="0" y="30" width="10.1" height="10.1" fill="#000000" />
<rect x="0" y="40" width="10.1" height="10.1" fill="#000000" />
<rect x="10" y="10" width="10.1" height="10.1" fill="#000000" />
<rect x="10" y="20" width="10.1" height="10.1" fill="#ff1313" />
<rect x="10" y="30" width="10.1" height="10.1" fill="#ff1313" />
<rect x="10" y="40" width="10.1" height="10.1" fill="#bb1313" />
<rect x="10" y="50" width="10.1" height="10.1" fill="#000000" />
<rect x="20" y="0" width="10.1" height="10.1" fill="#000000" />
<rect x="20" y="10" width="10.1" height="10.1" fill="#ff1313" />
<rect x="20" y="20" width="10.1" height="10.1" fill="#ffc8c8" />
<rect x="20" y="30" width="10.1" height="10.1" fill="#ff1313" />
<rect x="20" y="40" width="10.1" height="10.1" fill="#ff1313" />
<rect x="20" y="50" width="10.1" height="10.1" fill="#bb1313" />
<rect x="20" y="60" width="10.1" height="10.1" fill="#000000" />
<rect x="30" y="0" width="10.1" height="10.1" fill="#000000" />
<rect x="30" y="10" width="10.1" height="10.1" fill="#ff1313" />
<rect x="30" y="20" width="10.1" height="10.1" fill="#ff1313" />
<rect x="30" y="30" width="10.1" height="10.1" fill="#ff1313" />
<rect x="30" y="40" width="10.1" height="10.1" fill="#ff1313" />
<rect x="30" y="50" width="10.1" height="10.1" fill="#ff1313" />
<rect x="30" y="60" width="10.1" height="10.1" fill="#bb1313" />
<rect x="30" y="70" width="10.1" height="10.1" fill="#000000" />
<rect x="40" y="10" width="10.1" height="10.1" fill="#000000" />
<rect x="40" y="20" width="10.1" height="10.1" fill="#ff1313" />
<rect x="40" y="30" width="10.1" height="10.1" fill="#ff1313" />
<rect x="40" y="40" width="10.1" height="10.1" fill="#ff1313" />
<rect x="40" y="50" width="10.1" height="10.1" fill="#ff1313" />
<rect x="40" y="60" width="10.1" height="10.1" fill="#ff1313" />
<rect x="40" y="70" width="10.1" height="10.1" fill="#bb1313" />
<rect x="40" y="80" width="10.1" height="10.1" fill="#000000" />
<rect x="50" y="0" width="10.1" height="10.1" fill="#000000" />
<rect x="50" y="10" width="10.1" height="10.1" fill="#ff1313" />
<rect x="50" y="20" width="10.1" height="10.1" fill="#ff1313" />
<rect x="50" y="30" width="10.1" height="10.1" fill="#ff1313" />
<rect x="50" y="40" width="10.1" height="10.1" fill="#ff1313" />
<rect x="50" y="50" width="10.1" height="10.1" fill="#ff1313" />
<rect x="50" y="60" width="10.1" height="10.1" fill="#bb1313" />
<rect x="50" y="70" width="10.1" height="10.1" fill="#000000" />
<rect x="60" y="0" width="10.1" height="10.1" fill="#000000" />
<rect x="60" y="10" width="10.1" height="10.1" fill="#ff1313" />
<rect x="60" y="20" width="10.1" height="10.1" fill="#ff1313" />
<rect x="60" y="30" width="10.1" height="10.1" fill="#ff1313" />
<rect x="60" y="40" width="10.1" height="10.1" fill="#ff1313" />
<rect x="60" y="50" width="10.1" height="10.1" fill="#bb1313" />
<rect x="60" y="60" width="10.1" height="10.1" fill="#000000" />
<rect x="70" y="10" width="10.1" height="10.1" fill="#000000" />
<rect x="70" y="20" width="10.1" height="10.1" fill="#ff1313" />
<rect x="70" y="30" width="10.1" height="10.1" fill="#ff1313" />
<rect x="70" y="40" width="10.1" height="10.1" fill="#bb1313" />
<rect x="70" y="50" width="10.1" height="10.1" fill="#000000" />
<rect x="80" y="20" width="10.1" height="10.1" fill="#000000" />
<rect x="80" y="30" width="10.1" height="10.1" fill="#000000" />
<rect x="80" y="40" width="10.1" height="10.1" fill="#000000" />
</svg>
